<svg width="24" height="24" viewBox="0 0 24 24" fill="none" xmlns="http://www.w3.org/2000/svg">
<path fill-rule="evenodd" clip-rule="evenodd" d="M12 20.5C16.9706 20.5 20.5 16.9706 20.5 12C20.5 7.02944 16.9706 3.5 12 3.5C7.02944 3.5 3.5 7.02944 3.5 12C3.5 16.9706 7.02944 20.5 12 20.5ZM12 22.5C18.0751 22.5 22.5 18.0751 22.5 12C22.5 5.92487 18.0751 1.5 12 1.5C5.92487 1.5 1.5 5.92487 1.5 12C1.5 18.0751 5.92487 22.5 12 22.5Z" fill="black"/>
<path d="M5.27551 11H7.27551L7.32675 10.8359C7.43458 10.4907 7.6224 10.1405 7.97045 10.0423C8.06648 10.0152 8.16855 10 8.27551 10C8.38247 10 8.48453 10.0152 8.58056 10.0423C8.92861 10.1405 9.11644 10.4907 9.22426 10.8359L9.27551 11H11.2755C11.2755 10.6363 11.141 9.80534 11 9.55855C10.8491 9.29444 10.6413 9.03953 10.3915 8.81656C9.89187 8.37044 9.16278 8 8.27551 8C7.38823 8 6.65915 8.37044 6.15949 8.81656C5.90976 9.03953 5.70193 9.29444 5.55101 9.55855C5.40999 9.80534 5.27551 10.6363 5.27551 11Z" fill="black"/>
<path d="M13 11H15L15.0512 10.8359C15.1591 10.4907 15.3469 10.1405 15.6949 10.0423C15.791 10.0152 15.893 10 16 10C16.107 10 16.209 10.0152 16.305 10.0423C16.6531 10.1405 16.8409 10.4907 16.9487 10.8359L17 11H19C19 10.6363 18.8655 9.80534 18.7245 9.55855C18.5736 9.29444 18.3657 9.03953 18.116 8.81656C17.6164 8.37044 16.8873 8 16 8C15.1127 8 14.3836 8.37044 13.884 8.81656C13.6342 9.03953 13.4264 9.29444 13.2755 9.55855C13.1345 9.80534 13 10.6363 13 11Z" fill="black"/>
<path fill-rule="evenodd" clip-rule="evenodd" d="M10.7177 17.5308C8.64439 17.1191 7.04938 15.7325 6.2 14.6L7.8 13.4C8.45062 14.2675 9.65561 15.2809 11.1073 15.5692C12.4704 15.8398 14.257 15.5125 16.2628 13.3243L17.7372 14.6757C15.343 17.2875 12.8796 17.9602 10.7177 17.5308Z" fill="black"/>
</svg>
