<svg width="24" height="24" viewBox="0 0 24 24" fill="none" xmlns="http://www.w3.org/2000/svg">
<path fill-rule="evenodd" clip-rule="evenodd" d="M12 3.81818C7.48131 3.81818 3.81818 7.48131 3.81818 12C3.81818 16.5187 7.48131 20.1818 12 20.1818C16.5187 20.1818 20.1818 16.5187 20.1818 12C20.1818 7.48131 16.5187 3.81818 12 3.81818ZM2 12C2 6.47715 6.47715 2 12 2C17.5228 2 22 6.47715 22 12C22 17.5228 17.5228 22 12 22C6.47715 22 2 17.5228 2 12Z" fill="black"/>
<path fill-rule="evenodd" clip-rule="evenodd" d="M12 5.63636C12.5021 5.63636 12.9091 6.04338 12.9091 6.54545V12.9091C12.9091 13.4112 12.5021 13.8182 12 13.8182C11.4979 13.8182 11.0909 13.4112 11.0909 12.9091V6.54545C11.0909 6.04338 11.4979 5.63636 12 5.63636Z" fill="black"/>
<path fill-rule="evenodd" clip-rule="evenodd" d="M10.6364 16.5455C10.6364 15.7923 11.2469 15.1818 12 15.1818H12.0091C12.7622 15.1818 13.3727 15.7923 13.3727 16.5455C13.3727 17.2986 12.7622 17.9091 12.0091 17.9091H12C11.2469 17.9091 10.6364 17.2986 10.6364 16.5455Z" fill="black"/>
</svg>
