<svg width="24" height="24" viewBox="0 0 24 24" fill="none" xmlns="http://www.w3.org/2000/svg">
<path d="M1 3C1 1.89543 1.89543 1 3 1H21C22.1046 1 23 1.89543 23 3V21C23 22.1046 22.1046 23 21 23H3C1.89543 23 1 22.1046 1 21V3Z" fill="url(#paint0_linear_279_18065)"/>
<path fill-rule="evenodd" clip-rule="evenodd" d="M19.9069 12.7094C20.0674 12.9341 20.0153 13.2464 19.7906 13.4069C17.9253 14.7393 15.9236 15.0493 14.199 14.8724C12.4874 14.6968 11.0222 14.0396 10.193 13.3947C9.97506 13.2251 9.93579 12.911 10.1053 12.693C10.2749 12.4751 10.589 12.4358 10.807 12.6053C11.4778 13.1271 12.7626 13.7198 14.301 13.8776C15.8264 14.0341 17.5747 13.7607 19.2094 12.5931C19.4341 12.4326 19.7464 12.4847 19.9069 12.7094Z" fill="white"/>
<path d="M19.75 8.25C19.75 8.94036 19.1904 9.5 18.5 9.5C17.8096 9.5 17.25 8.94036 17.25 8.25C17.25 7.55964 17.8096 7 18.5 7C19.1904 7 19.75 7.55964 19.75 8.25Z" fill="white"/>
<path d="M6.75 8.25C6.75 8.94036 6.19036 9.5 5.5 9.5C4.80964 9.5 4.25 8.94036 4.25 8.25C4.25 7.55964 4.80964 7 5.5 7C6.19036 7 6.75 7.55964 6.75 8.25Z" fill="white"/>
<defs>
<linearGradient id="paint0_linear_279_18065" x1="12" y1="1" x2="12" y2="23" gradientUnits="userSpaceOnUse">
<stop/>
<stop offset="0.501305" stop-color="#828282"/>
<stop offset="1" stop-color="#F7F7F7"/>
</linearGradient>
</defs>
</svg>
