<svg width="20" height="21" viewBox="0 0 20 21" fill="none" xmlns="http://www.w3.org/2000/svg">
<path d="M12 5.5C12 6.60457 11.1046 7.5 10 7.5C8.89543 7.5 8 6.60457 8 5.5C8 4.39543 8.89543 3.5 10 3.5C11.1046 3.5 12 4.39543 12 5.5Z" fill="#B2B2B2"/>
<path d="M12 10.999C12 12.1036 11.1046 12.999 10 12.999C8.89543 12.999 8 12.1036 8 10.999C8 9.89446 8.89543 8.99903 10 8.99903C11.1046 8.99903 12 9.89446 12 10.999Z" fill="#B2B2B2"/>
<path d="M12 16.5C12 17.6046 11.1046 18.5 10 18.5C8.89543 18.5 8 17.6046 8 16.5C8 15.3954 8.89543 14.5 10 14.5C11.1046 14.5 12 15.3954 12 16.5Z" fill="#B2B2B2"/>
</svg>
