<svg width="24" height="24" viewBox="0 0 24 24" fill="none" xmlns="http://www.w3.org/2000/svg">
<path fill-rule="evenodd" clip-rule="evenodd" d="M12 20C16.4183 20 20 16.4183 20 12C20 7.58172 16.4183 4 12 4C7.58172 4 4 7.58172 4 12C4 16.4183 7.58172 20 12 20ZM12 22C17.5228 22 22 17.5228 22 12C22 6.47715 17.5228 2 12 2C6.47715 2 2 6.47715 2 12C2 17.5228 6.47715 22 12 22Z" fill="black"/>
<path fill-rule="evenodd" clip-rule="evenodd" d="M11 13.7962V6H13V13.7962L15.1534 11.912C15.2573 11.8211 15.4152 11.8317 15.5061 11.9356L16.4939 13.0644C16.5848 13.1683 16.5743 13.3263 16.4704 13.4172L12 17.3288L7.52964 13.4172C7.42573 13.3263 7.4152 13.1683 7.50612 13.0644L8.49388 11.9356C8.5848 11.8317 8.74274 11.8211 8.84665 11.912L11 13.7962Z" fill="black"/>
</svg>
