<svg width="24" height="24" viewBox="0 0 24 24" fill="none" xmlns="http://www.w3.org/2000/svg">
<path fill-rule="evenodd" clip-rule="evenodd" d="M10.3564 3.00174V6.66015C10.3564 6.90699 10.3063 7.1569 10.2039 7.38892C8.57879 11.0701 6.182 12.8749 3.88262 13.2857C3.82638 13.2957 3.78072 13.3242 3.75532 13.3518C3.74384 13.3643 3.73967 13.373 3.73861 13.3756L3.73821 13.3766L3.73826 19.2845C3.73826 19.2845 3.74032 19.2873 3.74257 19.2894C3.75182 19.298 3.76517 19.3035 3.78087 19.3026C5.66399 19.1887 6.88536 19.3904 7.8215 19.709C8.28214 19.8658 8.65491 20.0447 8.96852 20.199C8.99595 20.2125 9.0227 20.2257 9.04885 20.2386C9.33259 20.3785 9.54414 20.4829 9.77073 20.5632C9.89828 20.6084 10.2831 20.6651 10.9531 20.6958C11.5806 20.7245 12.3561 20.7276 13.1836 20.7141C14.8367 20.687 16.655 20.5939 17.8232 20.5162L17.8512 20.5144H17.8793C18.0078 20.5144 18.0883 20.4981 18.1341 20.4836C18.1772 20.4699 18.1922 20.4571 18.1944 20.4552C18.1967 20.4533 18.2031 20.4478 18.2128 20.4291C18.2238 20.408 18.2394 20.369 18.2524 20.304C18.3167 19.9839 18.247 19.5185 18.1483 18.9692C18.0403 18.368 18.3448 17.8453 18.7494 17.5771C19.4543 17.11 19.4726 16.5443 19.4105 16.3532C19.2958 15.9999 19.2548 15.4755 19.5528 15.008C19.8468 14.5467 19.8384 14.2512 19.794 14.0692C19.7401 13.8474 19.5898 13.6283 19.3757 13.4187C18.8937 12.9468 18.8368 12.2263 19.118 11.6881C19.2375 11.4596 19.237 11.311 19.2196 11.2171C19.1994 11.1082 19.1381 10.9834 19.0192 10.8501C18.8996 10.716 18.7468 10.6027 18.6056 10.525C18.5391 10.4884 18.4853 10.4653 18.4505 10.4529H13.6692V7.32749C13.6692 4.5812 13.0357 3.56257 12.5146 3.17938C11.9788 2.78537 11.2329 2.80544 10.3564 3.00174ZM13.5263 1.72716C14.7502 2.62716 15.4074 4.41081 15.4074 7.32749V8.66698H18.5135C18.7028 8.66698 18.8794 8.71678 19.0013 8.759C19.1395 8.80683 19.2838 8.87225 19.4262 8.95061C19.7085 9.10592 20.0264 9.33601 20.3007 9.64342C20.5756 9.95161 20.8313 10.3664 20.9271 10.8828C21.0126 11.3441 20.9595 11.8287 20.754 12.3123C21.0395 12.6292 21.3425 13.0696 21.4804 13.6359C21.6486 14.3268 21.5424 15.0851 21.0825 15.8634C21.3695 16.8639 20.9845 18.0967 19.9072 18.9241C19.9877 19.3972 20.0749 20.0667 19.9549 20.6647C19.8757 21.059 19.6941 21.4975 19.3043 21.8297C18.9202 22.1571 18.4354 22.2951 17.9095 22.3001C16.7212 22.3787 14.888 22.4723 13.2113 22.4998C12.3678 22.5136 11.5532 22.5109 10.8758 22.4799C10.241 22.4509 9.60629 22.3941 9.20382 22.2514C8.8765 22.1354 8.57331 21.9855 8.3057 21.8532C8.27585 21.8384 8.24644 21.8239 8.21748 21.8096C7.91738 21.6619 7.62627 21.5239 7.27494 21.4043C6.58712 21.1702 5.59213 20.982 3.88305 21.0854C2.89937 21.1449 2 20.3589 2 19.2851V13.3766C2 12.3613 2.78604 11.6689 3.58486 11.5262C5.19099 11.2393 7.17278 9.92752 8.61815 6.6573V2.99251C8.61815 2.19269 9.14326 1.44856 9.95214 1.2645C10.8802 1.05333 12.323 0.842226 13.5263 1.72716Z" fill="black"/>
</svg>
