<svg width="24" height="24" viewBox="0 0 24 24" fill="none" xmlns="http://www.w3.org/2000/svg">
<g opacity="0.89">
<path d="M4.62327 6.90853C4.54375 6.362 4.92233 5.85449 5.46886 5.77497L13.3855 4.62307C13.932 4.54355 14.4395 4.92214 14.5191 5.46867L14.7 6.71214H16.7211L16.3542 4.19111C16.1952 3.09805 15.1802 2.34088 14.0871 2.49993L4.19131 3.93979C3.09825 4.09884 2.34108 5.11387 2.50012 6.20693L3.93999 16.1027C4.08495 17.099 4.94103 17.8162 5.91915 17.815V15.8871C5.91915 15.8389 5.91567 15.7908 5.90873 15.7431L4.62327 6.90853Z" fill="black"/>
<path d="M12.2211 17.6159V11.3841C12.2211 11.2223 12.4032 11.1275 12.5357 11.2203L16.987 14.3362C17.1007 14.4158 17.1007 14.5842 16.987 14.6638L12.5357 17.7797C12.4032 17.8725 12.2211 17.7777 12.2211 17.6159Z" fill="black"/>
<path fill-rule="evenodd" clip-rule="evenodd" d="M19.2211 7.5H9.22105C8.11648 7.5 7.22105 8.39543 7.22105 9.5V19.5C7.22105 20.6046 8.11648 21.5 9.22105 21.5H19.2211C20.3256 21.5 21.2211 20.6046 21.2211 19.5V9.5C21.2211 8.39543 20.3256 7.5 19.2211 7.5ZM18.2211 9.5L10.2211 9.5C9.66877 9.5 9.22105 9.94772 9.22105 10.5V18.5C9.22105 19.0523 9.66877 19.5 10.2211 19.5H18.2211C18.7733 19.5 19.2211 19.0523 19.2211 18.5V10.5C19.2211 9.94771 18.7733 9.5 18.2211 9.5Z" fill="black"/>
<path d="M5.39687 5.28018C4.57707 5.39946 4.0092 6.16073 4.12848 6.98053L5.41394 15.8151C5.41741 15.839 5.41915 15.863 5.41915 15.8871V17.2294C4.91139 17.0494 4.51772 16.6008 4.43478 16.0307L2.99491 6.13493C2.87563 5.31514 3.44351 4.55387 4.2633 4.43458L14.1591 2.99472C14.9789 2.87543 15.7402 3.44331 15.8594 4.26311L16.143 6.21214H15.1325L15.0139 5.39667C14.8946 4.57688 14.1333 4.009 13.3135 4.12828L5.39687 5.28018ZM16.3492 14.5L12.7211 17.0397V11.9603L16.3492 14.5ZM16.7003 14.7458C16.7001 14.7456 16.6999 14.7455 16.6997 14.7454L16.7003 14.7458ZM16.6997 14.2546C16.6999 14.2545 16.7001 14.2544 16.7003 14.2542L16.6997 14.2546ZM9.22105 8H19.2211C20.0495 8 20.7211 8.67157 20.7211 9.5V19.5C20.7211 20.3284 20.0495 21 19.2211 21H9.22105C8.39262 21 7.72105 20.3284 7.72105 19.5V9.5C7.72105 8.67157 8.39262 8 9.22105 8ZM18.2211 9L10.2211 9C9.39262 9 8.72105 9.67157 8.72105 10.5V18.5C8.72105 19.3284 9.39262 20 10.2211 20H18.2211C19.0495 20 19.7211 19.3284 19.7211 18.5V10.5C19.7211 9.67157 19.0495 9 18.2211 9Z" stroke="black"/>
</g>
</svg>
