<svg width="24" height="24" viewBox="0 0 24 24" fill="none" xmlns="http://www.w3.org/2000/svg">
<path fill-rule="evenodd" clip-rule="evenodd" d="M2.07563 6.27496C2.07562 5.01854 3.09928 4 4.36203 4L19.7136 4.00002C20.9763 4.00002 22 5.01855 22 6.27497L22 17.6497C22 18.9061 20.9763 19.9246 19.7136 19.9246H13.8343V17.9747H19.7136C19.894 17.9747 20.0402 17.8292 20.0402 17.6497L20.0402 6.27497C20.0402 6.09548 19.894 5.94998 19.7136 5.94998L4.36203 5.94996C4.18164 5.94996 4.0354 6.09546 4.0354 6.27495L4.03541 8.2249L2.07564 8.22491L2.07563 6.27496Z" fill="black"/>
<path fill-rule="evenodd" clip-rule="evenodd" d="M7.06657 14.5681C5.51713 12.8723 3.63736 11.7998 2.07562 11.7998V9.84989C4.43343 9.84989 6.79983 11.3774 8.51668 13.2565C10.2409 15.1436 11.5479 17.6425 11.5479 19.9247H9.58809C9.58809 18.307 8.60865 16.2559 7.06657 14.5681Z" fill="black"/>
<path fill-rule="evenodd" clip-rule="evenodd" d="M4.97565 17.0392C4.13329 16.201 3.06344 15.6998 2.07562 15.6998V13.7498C3.70082 13.7498 5.24401 14.5485 6.36142 15.6603C7.47883 16.7721 8.28157 18.3076 8.28157 19.9247H6.3218C6.3218 18.9418 5.81802 17.8773 4.97565 17.0392Z" fill="black"/>
<path fill-rule="evenodd" clip-rule="evenodd" d="M2 18.9434C2 18.9434 2.02614 18.9497 2.07562 18.9497V16.9997C2.51737 16.9997 2.9137 17.1992 3.1732 17.359C3.46456 17.5385 3.74756 17.772 3.99339 18.0166C4.23921 18.2612 4.47388 18.5428 4.65424 18.8327C4.8149 19.091 5.01528 19.4854 5.01528 19.9249H3.05551C3.05551 19.974 3.06185 20 3.06185 20C3.06185 20 3.04759 19.955 2.98784 19.859C2.90282 19.7223 2.77003 19.557 2.60757 19.3954C2.4451 19.2337 2.279 19.1016 2.14165 19.017C2.04517 18.9575 2 18.9434 2 18.9434Z" fill="black"/>
</svg>
