<svg width="24" height="24" viewBox="0 0 24 24" fill="none" xmlns="http://www.w3.org/2000/svg">
<path fill-rule="evenodd" clip-rule="evenodd" d="M11 18C14.866 18 18 14.866 18 11C18 7.13401 14.866 4 11 4C7.13401 4 4 7.13401 4 11C4 14.866 7.13401 18 11 18ZM11 20C13.1138 20 15.0574 19.2713 16.5932 18.0514C17.164 17.598 17.6785 17.0768 18.1245 16.5C19.3003 14.9791 20 13.0712 20 11C20 6.02944 15.9706 2 11 2C6.02944 2 2 6.02944 2 11C2 15.9706 6.02944 20 11 20Z" fill="black"/>
<path d="M21.826 20.674C21.9225 20.5775 21.9238 20.4213 21.8288 20.3233L18.1245 16.5C17.6785 17.0768 17.164 17.598 16.5932 18.0514L20.3232 21.8213C20.4207 21.9199 20.5797 21.9203 20.6777 21.8223L21.826 20.674Z" fill="black"/>
</svg>
