<svg width="86" height="22" viewBox="0 0 86 22" fill="none" xmlns="http://www.w3.org/2000/svg">
<path d="M11.8253 20.5819C10.5316 20.797 9.2151 20.8615 7.8533 21.0332L3.6996 9.51763V21.5274C2.4059 21.6563 1.22567 21.8281 0 22V0H3.45008L8.17101 12.4826V0H11.8253V20.5819ZM18.9749 8.05665C20.3823 8.05665 22.5385 7.99217 23.8322 7.99217V11.4296C22.2206 11.4296 20.3368 11.4296 18.9749 11.4941V16.6074C21.1085 16.4786 23.2421 16.3065 25.3982 16.2421V19.5505L15.3433 20.3026V0H25.3982V3.43751H18.9749V8.05665ZM38.9031 3.43758H35.1354V19.2501C33.9097 19.2501 32.684 19.2501 31.504 19.2929V3.43758H27.7363V0H38.9032L38.9031 3.43758ZM44.8043 7.82038H49.7751V11.2578H44.8043V19.0567H41.2406V0H51.3866V3.43751H44.8043V7.82038ZM57.2878 16.0488C59.3534 16.0917 61.4414 16.2423 63.4615 16.3496V19.7441C60.2159 19.5506 56.9701 19.3575 53.6564 19.2929V0H57.2878V16.0488ZM66.5256 19.9805C67.6832 20.045 68.9088 20.1095 70.0891 20.2382V0H66.5256V19.9805ZM86 0L81.3924 10.4629L86 22C84.638 21.8281 83.2762 21.5918 81.9143 21.3769L79.3043 15.0177L76.6489 20.8615C75.3322 20.6464 74.0612 20.5819 72.745 20.4101L77.4206 10.3339L73.1988 0H77.1025L79.4857 5.77931L82.028 0H86Z" fill="#D22F26"/>
</svg>
