<svg width="73" height="14" viewBox="0 0 73 14" fill="none" xmlns="http://www.w3.org/2000/svg">
<rect width="73" height="14" fill="#B1060F"/>
<path d="M6.076 10V4.432H7.332L9.82 8.016V4.432H11.068V10H9.82L7.324 6.408V10H6.076ZM12.2166 10V4.432H16.3286V5.552H13.5126V6.624H16.2246V7.744H13.5126V8.88H16.3686V10H12.2166ZM18.5416 10L16.9336 4.432H18.2856L19.2296 8.008L20.1816 4.448H21.3576L22.3736 8.04L23.2856 4.432H24.6216L23.0056 10H21.8136L20.7736 6.288L19.7336 10H18.5416ZM27.1229 10V4.432H31.2349V5.552H28.4189V6.624H31.1309V7.744H28.4189V8.88H31.2749V10H27.1229ZM32.2479 10V4.432H34.5519C35.0105 4.432 35.4052 4.512 35.7359 4.672C36.0665 4.832 36.3199 5.056 36.4959 5.344C36.6719 5.632 36.7599 5.968 36.7599 6.352C36.7599 6.736 36.6719 7.07467 36.4959 7.368C36.3199 7.656 36.0665 7.88 35.7359 8.04C35.4052 8.2 35.0105 8.28 34.5519 8.28H33.5519V10H32.2479ZM33.5519 7.176H34.3599C34.7332 7.176 35.0052 7.10667 35.1759 6.968C35.3519 6.824 35.4399 6.61867 35.4399 6.352C35.4399 6.09067 35.3519 5.89067 35.1759 5.752C35.0052 5.608 34.7332 5.536 34.3599 5.536H33.5519V7.176ZM38.88 10H37.576V4.432H38.88V10ZM42.0611 10.128C41.3785 10.128 40.8318 9.97333 40.4211 9.664C40.0105 9.35467 39.7465 8.92267 39.6291 8.368H40.9171C40.9758 8.56 41.1038 8.71733 41.3011 8.84C41.4985 8.96267 41.7465 9.024 42.0451 9.024C42.3225 9.024 42.5465 8.97333 42.7171 8.872C42.8878 8.77067 42.9731 8.62933 42.9731 8.448C42.9731 8.336 42.9465 8.24 42.8931 8.16C42.8451 8.08 42.7465 8.01067 42.5971 7.952C42.4531 7.888 42.2345 7.832 41.9411 7.784L41.3491 7.68C40.8371 7.58933 40.4505 7.42133 40.1891 7.176C39.9331 6.92533 39.8051 6.56267 39.8051 6.088C39.8051 5.72 39.9011 5.40267 40.0931 5.136C40.2851 4.86933 40.5465 4.664 40.8771 4.52C41.2078 4.376 41.5758 4.304 41.9811 4.304C42.5945 4.304 43.1011 4.448 43.5011 4.736C43.9011 5.024 44.1438 5.43733 44.2291 5.976H42.9411C42.8931 5.79467 42.7891 5.656 42.6291 5.56C42.4745 5.45867 42.2638 5.408 41.9971 5.408C41.7198 5.408 41.5011 5.45867 41.3411 5.56C41.1865 5.66133 41.1091 5.79733 41.1091 5.968C41.1091 6.12267 41.1731 6.24533 41.3011 6.336C41.4291 6.42667 41.6851 6.50667 42.0691 6.576L42.6531 6.672C43.7411 6.85867 44.2851 7.40533 44.2851 8.312C44.2851 8.70133 44.1891 9.032 43.9971 9.304C43.8105 9.576 43.5491 9.78133 43.2131 9.92C42.8825 10.0587 42.4985 10.128 42.0611 10.128ZM47.7301 10.128C47.3141 10.128 46.9301 10.056 46.5781 9.912C46.2315 9.768 45.9301 9.56533 45.6741 9.304C45.4235 9.04267 45.2261 8.736 45.0821 8.384C44.9435 8.02667 44.8741 7.63733 44.8741 7.216C44.8741 6.79467 44.9435 6.408 45.0821 6.056C45.2261 5.69867 45.4235 5.38933 45.6741 5.128C45.9301 4.86667 46.2315 4.664 46.5781 4.52C46.9301 4.376 47.3141 4.304 47.7301 4.304C48.1515 4.304 48.5355 4.376 48.8821 4.52C49.2341 4.664 49.5381 4.86667 49.7941 5.128C50.0501 5.38933 50.2475 5.69867 50.3861 6.056C50.5301 6.408 50.6021 6.79467 50.6021 7.216C50.6021 7.63733 50.5301 8.02667 50.3861 8.384C50.2475 8.736 50.0501 9.04267 49.7941 9.304C49.5381 9.56533 49.2341 9.768 48.8821 9.912C48.5355 10.056 48.1515 10.128 47.7301 10.128ZM47.7301 8.976C48.0341 8.976 48.3008 8.904 48.5301 8.76C48.7648 8.61067 48.9488 8.40533 49.0821 8.144C49.2155 7.87733 49.2821 7.568 49.2821 7.216C49.2821 6.864 49.2155 6.55733 49.0821 6.296C48.9488 6.02933 48.7648 5.824 48.5301 5.68C48.3008 5.53067 48.0341 5.456 47.7301 5.456C47.4315 5.456 47.1648 5.53067 46.9301 5.68C46.7008 5.824 46.5195 6.02933 46.3861 6.296C46.2581 6.55733 46.1941 6.864 46.1941 7.216C46.1941 7.568 46.2581 7.87733 46.3861 8.144C46.5195 8.40533 46.7008 8.61067 46.9301 8.76C47.1648 8.904 47.4315 8.976 47.7301 8.976ZM51.4666 10V4.432H53.6346C54.2053 4.432 54.704 4.54667 55.1306 4.776C55.5573 5.00533 55.8853 5.328 56.1146 5.744C56.3493 6.16 56.4666 6.65067 56.4666 7.216C56.4666 7.78133 56.3493 8.272 56.1146 8.688C55.8853 9.104 55.5573 9.42667 55.1306 9.656C54.704 9.88533 54.2053 10 53.6346 10H51.4666ZM52.7706 8.872H53.5546C54.04 8.872 54.4266 8.728 54.7146 8.44C55.0026 8.152 55.1466 7.744 55.1466 7.216C55.1466 6.688 55.0026 6.28 54.7146 5.992C54.4266 5.704 54.04 5.56 53.5546 5.56H52.7706V8.872ZM57.3338 10V4.432H61.4458V5.552H58.6298V6.624H61.3418V7.744H58.6298V8.88H61.4858V10H57.3338ZM64.4908 10.128C63.8081 10.128 63.2615 9.97333 62.8508 9.664C62.4401 9.35467 62.1761 8.92267 62.0588 8.368H63.3468C63.4055 8.56 63.5335 8.71733 63.7308 8.84C63.9281 8.96267 64.1761 9.024 64.4748 9.024C64.7521 9.024 64.9761 8.97333 65.1468 8.872C65.3175 8.77067 65.4028 8.62933 65.4028 8.448C65.4028 8.336 65.3761 8.24 65.3228 8.16C65.2748 8.08 65.1761 8.01067 65.0268 7.952C64.8828 7.888 64.6641 7.832 64.3708 7.784L63.7788 7.68C63.2668 7.58933 62.8801 7.42133 62.6188 7.176C62.3628 6.92533 62.2348 6.56267 62.2348 6.088C62.2348 5.72 62.3308 5.40267 62.5228 5.136C62.7148 4.86933 62.9761 4.664 63.3068 4.52C63.6375 4.376 64.0055 4.304 64.4108 4.304C65.0241 4.304 65.5308 4.448 65.9308 4.736C66.3308 5.024 66.5735 5.43733 66.6588 5.976H65.3708C65.3228 5.79467 65.2188 5.656 65.0588 5.56C64.9041 5.45867 64.6935 5.408 64.4268 5.408C64.1495 5.408 63.9308 5.45867 63.7708 5.56C63.6161 5.66133 63.5388 5.79733 63.5388 5.968C63.5388 6.12267 63.6028 6.24533 63.7308 6.336C63.8588 6.42667 64.1148 6.50667 64.4988 6.576L65.0828 6.672C66.1708 6.85867 66.7148 7.40533 66.7148 8.312C66.7148 8.70133 66.6188 9.032 66.4268 9.304C66.2401 9.576 65.9788 9.78133 65.6428 9.92C65.3121 10.0587 64.9281 10.128 64.4908 10.128Z" fill="white"/>
</svg>
