<svg width="17" height="24" viewBox="0 0 17 24" fill="none" xmlns="http://www.w3.org/2000/svg">
<g clip-path="url(#clip0_135_12793)">
<path d="M0 0H17V24L0 21V0Z" fill="#D22F26"/>
<path d="M4.93309 8H3.95509V4.67H2.62909V3.824H6.25909V4.67H4.93309V8ZM8.47045 8.096C8.15845 8.096 7.87045 8.042 7.60645 7.934C7.34645 7.826 7.12045 7.674 6.92845 7.478C6.74045 7.282 6.59245 7.052 6.48445 6.788C6.38045 6.52 6.32845 6.228 6.32845 5.912C6.32845 5.596 6.38045 5.306 6.48445 5.042C6.59245 4.774 6.74045 4.542 6.92845 4.346C7.12045 4.15 7.34645 3.998 7.60645 3.89C7.87045 3.782 8.15845 3.728 8.47045 3.728C8.78645 3.728 9.07445 3.782 9.33445 3.89C9.59845 3.998 9.82645 4.15 10.0184 4.346C10.2104 4.542 10.3584 4.774 10.4624 5.042C10.5704 5.306 10.6244 5.596 10.6244 5.912C10.6244 6.228 10.5704 6.52 10.4624 6.788C10.3584 7.052 10.2104 7.282 10.0184 7.478C9.82645 7.674 9.59845 7.826 9.33445 7.934C9.07445 8.042 8.78645 8.096 8.47045 8.096ZM8.47045 7.232C8.69845 7.232 8.89845 7.178 9.07045 7.07C9.24645 6.958 9.38445 6.804 9.48445 6.608C9.58445 6.408 9.63445 6.176 9.63445 5.912C9.63445 5.648 9.58445 5.418 9.48445 5.222C9.38445 5.022 9.24645 4.868 9.07045 4.76C8.89845 4.648 8.69845 4.592 8.47045 4.592C8.24645 4.592 8.04645 4.648 7.87045 4.76C7.69845 4.868 7.56245 5.022 7.46245 5.222C7.36645 5.418 7.31845 5.648 7.31845 5.912C7.31845 6.176 7.36645 6.408 7.46245 6.608C7.56245 6.804 7.69845 6.958 7.87045 7.07C8.04645 7.178 8.24645 7.232 8.47045 7.232ZM11.0228 8V3.824H12.7508C13.0948 3.824 13.3908 3.884 13.6388 4.004C13.8868 4.124 14.0768 4.292 14.2088 4.508C14.3408 4.724 14.4068 4.976 14.4068 5.264C14.4068 5.552 14.3408 5.806 14.2088 6.026C14.0768 6.242 13.8868 6.41 13.6388 6.53C13.3908 6.65 13.0948 6.71 12.7508 6.71H12.0008V8H11.0228ZM12.0008 5.882H12.6068C12.8868 5.882 13.0908 5.83 13.2188 5.726C13.3508 5.618 13.4168 5.464 13.4168 5.264C13.4168 5.068 13.3508 4.918 13.2188 4.814C13.0908 4.706 12.8868 4.652 12.6068 4.652H12.0008V5.882Z" fill="#FDFCFD"/>
<path d="M4.83695 17V11.67L3.24695 12.11V10.74L6.41695 9.91V17H4.83695ZM10.81 17.15C10.2367 17.15 9.73333 17.0033 9.3 16.71C8.87333 16.41 8.54333 15.99 8.31 15.45C8.07667 14.9033 7.96 14.26 7.96 13.52C7.96 12.7867 8.07667 12.1467 8.31 11.6C8.54333 11.0533 8.87333 10.6333 9.3 10.34C9.73333 10.04 10.2367 9.89 10.81 9.89C11.3833 9.89 11.8833 10.04 12.31 10.34C12.7433 10.6333 13.0767 11.0533 13.31 11.6C13.5433 12.1467 13.66 12.7867 13.66 13.52C13.66 14.26 13.5433 14.9033 13.31 15.45C13.0767 15.99 12.7433 16.41 12.31 16.71C11.8833 17.0033 11.3833 17.15 10.81 17.15ZM10.81 15.75C11.1967 15.75 11.5 15.5567 11.72 15.17C11.94 14.7767 12.05 14.2267 12.05 13.52C12.05 12.8133 11.94 12.2667 11.72 11.88C11.5 11.4867 11.1967 11.29 10.81 11.29C10.4233 11.29 10.12 11.4867 9.9 11.88C9.68 12.2667 9.57 12.8133 9.57 13.52C9.57 14.2267 9.68 14.7767 9.9 15.17C10.12 15.5567 10.4233 15.75 10.81 15.75Z" fill="#FDFCFD"/>
</g>
<defs>
<clipPath id="clip0_135_12793">
<rect width="17" height="24" fill="white"/>
</clipPath>
</defs>
</svg>
